<svg width="14" height="14"  xmlns="http://www.w3.org/2000/svg">
    <symbol xmlns="http://www.w3.org/2000/svg" id="phone" viewBox="0 0 14 14" fill="none">
        <path d="M12.9996 9.98431V11.7908C13.0003 11.9585 12.9659 12.1245 12.8986 12.2781C12.8313 12.4318 12.7325 12.5697 12.6087 12.6831C12.4849 12.7965 12.3387 12.8828 12.1795 12.9365C12.0203 12.9903 11.8517 13.0102 11.6843 12.9951C9.82768 12.7938 8.04426 12.1606 6.47734 11.1465C5.01953 10.222 3.78356 8.98843 2.8572 7.53351C1.83752 5.96259 1.20294 4.17405 1.0049 2.31277C0.98982 2.14625 1.00965 1.97843 1.06312 1.81998C1.11659 1.66153 1.20254 1.51592 1.31548 1.39244C1.42843 1.26896 1.5659 1.1703 1.71915 1.10274C1.87239 1.03519 2.03805 1.00022 2.20558 1.00006H4.01565C4.30846 0.997182 4.59233 1.10067 4.81435 1.29122C5.03636 1.48178 5.18138 1.74641 5.22236 2.03578C5.29876 2.61389 5.44044 3.18152 5.64471 3.72785C5.72589 3.94338 5.74346 4.17761 5.69534 4.4028C5.64721 4.62799 5.53542 4.83469 5.3732 4.99841L4.60694 5.76315C5.46585 7.27069 6.71655 8.51891 8.22708 9.37612L8.99334 8.61138C9.15739 8.44948 9.3645 8.33791 9.59013 8.28988C9.81577 8.24185 10.0505 8.25939 10.2664 8.3404C10.8138 8.54427 11.3826 8.68567 11.9619 8.76192C12.2549 8.80318 12.5226 8.95052 12.714 9.1759C12.9053 9.40128 13.007 9.68899 12.9996 9.98431Z" stroke="#D6B47E" stroke-linecap="round" stroke-linejoin="round"/>
    </symbol>

    <symbol xmlns="http://www.w3.org/2000/svg" id="telegram" viewBox="0 0 12 12" fill="none">
        <path fill-rule="evenodd" clip-rule="evenodd" d="M4.70107 7.91923L9.14821 11.8365C9.65569 12.1704 10.0219 11.9975 10.1484 11.2748L11.9586 1.10432C12.1439 0.218407 11.6753 -0.1834 11.1898 0.0793841L0.560292 4.96613C-0.165275 5.3131 -0.161045 5.79573 0.428036 6.01077L3.15582 7.02585L9.47093 2.27572C9.76905 2.06018 10.0427 2.17605 9.81809 2.41369" fill="#D6B47E"/>
    </symbol>

    <symbol xmlns="http://www.w3.org/2000/svg" id="whatsapp" viewBox="0 0 13 14" fill="none">
        <path fill-rule="evenodd" clip-rule="evenodd" d="M6.52722 13.3883H6.52454C5.44123 13.3879 4.37676 13.1174 3.43134 12.6042L0 13.5L0.918284 10.1619C0.351842 9.18496 0.0537826 8.07678 0.0542684 6.94143C0.0556883 3.38965 2.9594 0.5 6.52715 0.5C8.25871 0.500744 9.8839 1.17161 11.106 2.38925C12.328 3.60683 13.0007 5.22529 13 6.94651C12.9986 10.4975 10.096 13.3868 6.52722 13.3883ZM3.58979 11.4383L3.78624 11.5544C4.61226 12.0422 5.55911 12.3003 6.5245 12.3007H6.52668C9.49195 12.3007 11.9054 9.89876 11.9066 6.94648C11.9071 5.51581 11.3481 4.17062 10.3323 3.15856C9.31658 2.1465 7.96579 1.58887 6.5288 1.58838C3.56124 1.58838 1.14778 3.99007 1.1466 6.94214C1.14619 7.95383 1.43062 8.9391 1.96916 9.79156L2.09708 9.99414L1.55358 11.9699L3.58979 11.4383ZM9.78813 8.4786C9.74772 8.41146 9.63991 8.37118 9.47818 8.29058C9.31645 8.21002 8.52129 7.82067 8.37301 7.7669C8.22479 7.71321 8.11692 7.68638 8.00912 7.84747C7.90132 8.00858 7.59137 8.37118 7.49702 8.4786C7.40267 8.58599 7.30832 8.59948 7.14664 8.51888C6.98491 8.43832 6.46378 8.26837 5.846 7.71997C5.3652 7.29316 5.04061 6.76608 4.94627 6.60494C4.85192 6.44379 4.93621 6.35671 5.01717 6.27645C5.08994 6.20431 5.17892 6.0884 5.25978 5.99444C5.34064 5.90048 5.3676 5.8333 5.42151 5.72595C5.47542 5.61848 5.44847 5.52452 5.40803 5.44395C5.3676 5.36337 5.04415 4.57109 4.90937 4.2488C4.77808 3.93494 4.64475 3.97746 4.54548 3.9725C4.45125 3.96779 4.34331 3.9668 4.2355 3.9668C4.12769 3.9668 3.95246 4.00708 3.80421 4.16823C3.65597 4.32937 3.23816 4.71879 3.23816 5.51101C3.23816 6.30329 3.81768 7.06867 3.89856 7.17608C3.97942 7.28355 5.039 8.9093 6.66144 9.60651C7.04731 9.77236 7.34855 9.87139 7.58346 9.94556C7.97088 10.0681 8.3235 10.0508 8.60213 10.0093C8.91289 9.96315 9.55902 9.62 9.69385 9.24403C9.82855 8.86798 9.82855 8.54571 9.78813 8.4786Z" fill="#D6B47E"/>
    </symbol>

    <symbol xmlns="http://www.w3.org/2000/svg" id="mail" width="15" height="16" viewBox="0 0 15 16" fill="none">
        <path d="M2.5 3H12.5C13.1875 3 13.75 3.5625 13.75 4.25V11.75C13.75 12.4375 13.1875 13 12.5 13H2.5C1.8125 13 1.25 12.4375 1.25 11.75V4.25C1.25 3.5625 1.8125 3 2.5 3Z" stroke="#D6B47E" stroke-linecap="round" stroke-linejoin="round"/>
        <path d="M13.75 4.25L7.5 8.625L1.25 4.25" stroke="#D6B47E" stroke-linecap="round" stroke-linejoin="round"/>
    </symbol>

    <symbol xmlns="http://www.w3.org/2000/svg" id="slider" width="15" height="15" viewBox="0 0 15 15" fill="none">
        <rect width="5" height="5" rx="2.5" transform="matrix(1 0 0 -1 5 10)" fill="#D6B47E" fill-opacity="0.5"/>
        <path d="M15 7.5C15 11.6421 11.6421 15 7.5 15C3.35786 15 0 11.6421 0 7.5C0 3.35786 3.35786 0 7.5 0C11.6421 0 15 3.35786 15 7.5ZM0.13523 7.5C0.13523 11.5675 3.43255 14.8648 7.5 14.8648C11.5675 14.8648 14.8648 11.5675 14.8648 7.5C14.8648 3.43255 11.5675 0.13523 7.5 0.13523C3.43255 0.13523 0.13523 3.43255 0.13523 7.5Z" fill="#D6B47E" fill-opacity="0.5"/>
    </symbol>

    <symbol xmlns="http://www.w3.org/2000/svg" id="sliderhover" width="15" height="15" viewBox="0 0 15 15" fill="none">
        <rect width="15" height="15" rx="7.5" transform="matrix(1 0 0 -1 0 15)" fill="#D6B47E"/>
        <rect width="5" height="5" rx="2.5" transform="matrix(1 0 0 -1 5 10)" fill="#1A1A1A"/>
        <path d="M15 7.5C15 11.6421 11.6421 15 7.5 15C3.35786 15 0 11.6421 0 7.5C0 3.35786 3.35786 0 7.5 0C11.6421 0 15 3.35786 15 7.5ZM0.13523 7.5C0.13523 11.5675 3.43255 14.8648 7.5 14.8648C11.5675 14.8648 14.8648 11.5675 14.8648 7.5C14.8648 3.43255 11.5675 0.13523 7.5 0.13523C3.43255 0.13523 0.13523 3.43255 0.13523 7.5Z" fill="#D6B47E" fill-opacity="0.5"/>
    </symbol>

    <symbol xmlns="http://www.w3.org/2000/svg" id="arrow-down" width="15" height="16" viewBox="0 0 15 16" fill="none">
        <path d="M6.25 9.875L9.375 13L12.5 9.875" stroke="#D6B47E" stroke-linecap="round" stroke-linejoin="round"/>
        <path d="M2.5 3H6.875C7.53804 3 8.17393 3.26339 8.64277 3.73223C9.11161 4.20107 9.375 4.83696 9.375 5.5V13" stroke="#D6B47E" stroke-linecap="round" stroke-linejoin="round"/>
    </symbol>

    <symbol xmlns="http://www.w3.org/2000/svg" id="arrow-white" width="24" height="24" viewBox="0 0 24 24" fill="none">
        <path d="M5 12H19" stroke="#CACAC9" stroke-linecap="round" stroke-linejoin="round"/>
        <path d="M12 5L19 12L12 19" stroke="#CACAC9" stroke-linecap="round" stroke-linejoin="round"/>
    </symbol>

    <symbol xmlns="http://www.w3.org/2000/svg" id="burger"  width="24" height="24" viewBox="0 0 24 24" fill="none">
        <path d="M21 10H7" stroke="#CACAC9" stroke-linecap="round" stroke-linejoin="round"/>
        <path d="M21 6H3" stroke="#CACAC9" stroke-linecap="round" stroke-linejoin="round"/>
        <path d="M21 14H3" stroke="#CACAC9" stroke-linecap="round" stroke-linejoin="round"/>
        <path d="M21 18H7" stroke="#CACAC9" stroke-linecap="round" stroke-linejoin="round"/>
    </symbol>
</svg>
