<svg xmlns="http://www.w3.org/2000/svg">
    <symbol xmlns="http://www.w3.org/2000/svg" id="icon-1" width="31" height="32" viewBox="0 0 31 32" fill="none">
        <path d="M5.18799 13.1289H15.5005C15.9859 13.1289 16.3794 12.7354 16.3794 12.25C16.3794 11.7646 15.9859 11.3711 15.5005 11.3711H5.18799C4.7026 11.3711 4.30908 11.7646 4.30908 12.25C4.30908 12.7354 4.7026 13.1289 5.18799 13.1289Z" fill="#CACAC9"/>
        <path d="M5.18799 8.44141H18.313C18.7984 8.44141 19.1919 8.04789 19.1919 7.5625C19.1919 7.07711 18.7984 6.68359 18.313 6.68359H5.18799C4.7026 6.68359 4.30908 7.07711 4.30908 7.5625C4.30908 8.04789 4.7026 8.44141 5.18799 8.44141Z" fill="#CACAC9"/>
        <path d="M29.9856 11.947L28.5184 10.4797C27.833 9.79428 26.7179 9.79439 26.0324 10.4797L22.9419 13.5702V3.63672C22.9419 2.18283 21.7591 1 20.3052 1H3.13721C1.68332 1 0.500488 2.18283 0.500488 3.63672V28.3633C0.500488 29.8172 1.68332 31 3.13721 31H20.3052C21.7591 31 22.9419 29.8172 22.9419 28.3633V21.3887L29.9856 14.4329C30.671 13.7475 30.671 12.6323 29.9856 11.947ZM19.474 22.3428L16.8301 23.5767L18.0627 20.9354L24.6238 14.3744L26.0744 15.8249L19.474 22.3428ZM21.1841 28.3633C21.1841 28.8479 20.7898 29.2422 20.3052 29.2422H3.13721C2.65258 29.2422 2.2583 28.8479 2.2583 28.3633V3.63672C2.2583 3.15209 2.65258 2.75781 3.13721 2.75781H20.3052C20.7898 2.75781 21.1841 3.15209 21.1841 3.63672V15.328C16.3103 20.2018 16.6286 19.8517 16.5353 20.0516L14.2151 25.0236C14.0588 25.3585 14.1287 25.7554 14.39 26.0167C14.6513 26.2781 15.0484 26.3479 15.3832 26.1917L20.3551 23.8714C20.5374 23.7863 20.5674 23.7335 21.1841 23.1245V28.3633ZM27.3251 14.5898L25.8667 13.1314L27.2754 11.7227L28.7422 13.1904L27.3251 14.5898Z" fill="#CACAC9"/>
        <path d="M12.688 16.0586H5.18799C4.7026 16.0586 4.30908 16.4521 4.30908 16.9375C4.30908 17.4229 4.7026 17.8164 5.18799 17.8164H12.688C13.1734 17.8164 13.5669 17.4229 13.5669 16.9375C13.5669 16.4521 13.1734 16.0586 12.688 16.0586Z" fill="#CACAC9"/>
    </symbol>

    <symbol xmlns="http://www.w3.org/2000/svg" id="icon-2" width="39" height="30" viewBox="0 0 39 30" fill="none">
        <g clip-path="url(#clip0)">
        <path d="M2.26305 21.1799C2.54795 21.2918 2.85469 21.3692 3.17105 21.4124L2.67816 21.9654C2.57853 22.0773 2.51357 22.2057 2.48794 22.3405L1.75414 26.2288C1.69209 26.5582 1.87183 26.8868 2.21906 27.0777C2.56659 27.2688 3.02103 27.289 3.39331 27.1306L7.53771 25.3673C8.11012 26.1798 9.21242 26.7314 10.4758 26.7314C11.3346 26.7314 12.1191 26.4767 12.713 26.0585C13.3073 26.4767 14.0918 26.7314 14.9503 26.7314C16.8009 26.7314 18.3064 25.5486 18.3064 24.0947V23.7582C20.3872 24.5538 22.7042 24.9736 25.018 24.9736C27.4082 24.9736 29.7785 24.5429 31.8791 23.7287V25.8525C31.8791 26.1572 32.0799 26.4401 32.4096 26.6003C32.7388 26.76 33.1507 26.7751 33.4979 26.6387L37.9727 24.8809C38.3517 24.7319 38.5911 24.4277 38.5911 24.0947V13.5476C38.5911 13.0621 38.0901 12.6687 37.4725 12.6687C35.6906 12.6687 31.3676 12.6687 29.7517 12.6687L21.8606 9.63482L24.8587 6.27071C25.2126 5.87337 25.09 5.32497 24.5837 5.04664L20.9185 3.02996C20.4128 2.75187 19.7148 2.84823 19.3606 3.2458C18.8869 3.77726 15.8644 7.16907 15.3939 7.69687C14.4763 7.31807 13.376 7.31991 12.6781 7.55794L8.42153 9.01089C7.80454 9.22169 7.28748 9.56868 6.92684 10.0148L0.818761 17.5633C0.422003 18.0538 0.257707 18.8954 0.57989 19.6551C0.86333 20.3232 1.46109 20.8647 2.26305 21.1799ZM4.29548 24.7479L4.66253 22.8038L5.66287 21.6811C6.09167 22.173 6.67515 22.5747 7.35797 22.8439L6.49513 23.812L4.29548 24.7479ZM10.4758 24.9738C9.85912 24.9738 9.3572 24.5795 9.3572 24.0947V23.6651L9.75774 23.2158H11.5944V24.0947C11.5944 24.5795 11.0928 24.9738 10.4758 24.9738ZM14.9505 24.9738C14.3336 24.9738 13.8319 24.5795 13.8319 24.0947V23.2158H16.0692V24.0947C16.0692 24.5795 15.5672 24.9738 14.9505 24.9738ZM36.3539 23.5516L34.1164 24.4305V14.4265H36.3539V23.5516ZM29.0011 14.337C29.1543 14.3958 29.3224 14.4265 29.4928 14.4265H31.8791V21.7818C31.1253 22.0121 28.7843 23.2158 25.0183 23.2158C21.026 23.2158 18.5671 21.8265 17.6879 21.5507C17.5283 21.488 17.3524 21.458 17.1878 21.458H9.3572C8.21324 21.458 7.26767 20.7798 7.13629 19.9082C7.17125 19.7807 7.16804 19.6498 7.13105 19.5246C7.24349 18.6375 8.19897 17.9423 9.3572 17.9423H16.2611C18.6 17.9423 20.7994 17.2266 22.4534 15.927C22.8901 15.5837 22.8901 15.0273 22.4534 14.684C22.0164 14.3406 21.3083 14.3406 20.8713 14.684C19.6397 15.6515 18.0025 16.1845 16.2611 16.1845H16.024L20.5614 11.0928L29.0011 14.337ZM17.9851 7.85412L19.8177 8.86257L13.2927 16.1845H10.5615C11.5126 15.1172 17.1126 8.83328 17.9851 7.85412ZM20.5515 4.97432L22.3844 5.98254L21.1009 7.42267L19.2683 6.41422L20.5515 4.97432ZM2.74283 18.4619L8.81479 10.958C8.9351 10.8092 9.10755 10.6936 9.31321 10.6234L13.5165 9.1885C13.7032 9.14547 13.8957 9.1425 14.0775 9.17431L7.568 16.4786C6.19217 16.9522 5.17552 17.9538 4.93665 19.1559C4.73215 19.6072 3.84338 19.8352 3.26368 19.6075C2.71807 19.3932 2.50134 18.8844 2.74283 18.4619Z" fill="#CACAC9" fill-opacity="0.8"/>
        </g>
        <defs>
        <clipPath id="clip0">
        <rect width="38.1818" height="30" fill="white" transform="translate(0.40918)"/>
        </clipPath>
        </defs>
    </symbol>

    <symbol xmlns="http://www.w3.org/2000/svg" id="icon-3" width="31" height="20" viewBox="0 0 31 20" fill="none">
        <path d="M30.5 5.21728C30.4993 4.76184 30.3654 4.29994 30.0692 3.9192L27.6921 0.877715C27.294 0.372168 26.6882 0.114766 26.0828 0.11377C25.7225 0.11377 25.3556 0.206113 25.0315 0.408262L22.7138 1.85025C22.47 2.0057 22.0521 2.1124 21.6485 2.10965C21.3349 2.111 21.0318 2.04824 20.8317 1.94939L18.5621 0.85C18.196 0.67375 17.7879 0.601504 17.3775 0.600801C16.7881 0.603555 16.1912 0.748399 15.7115 1.0808L15.4467 1.2666C15.235 1.16096 14.9115 1 14.545 0.817656C14.1056 0.602207 13.5889 0.515313 13.0669 0.513614C12.5954 0.514961 12.124 0.587618 11.7101 0.762461L10.1642 1.42211C9.91256 1.53121 9.51236 1.60246 9.11486 1.6007C8.71736 1.6024 8.31787 1.53115 8.06627 1.42211L6.51893 0.762109C6.23668 0.641758 5.93498 0.590313 5.63598 0.589961C5.29168 0.590313 4.94944 0.658164 4.63133 0.787012C4.31363 0.916563 4.01873 1.10781 3.78389 1.37025L0.966701 4.52529C0.654455 4.87398 0.499357 5.31309 0.500002 5.74533C0.499357 6.26078 0.719904 6.77787 1.14529 7.14027L3.77322 9.38231L2.52658 10.6828C2.18293 11.0414 2.01184 11.5064 2.01184 11.9662C2.01119 12.4554 2.20549 12.9494 2.59033 13.3131L2.84322 13.5534C3.08153 13.7794 3.36787 13.9232 3.66752 13.9999C3.51723 14.2763 3.43508 14.5795 3.43572 14.8831C3.43508 15.3727 3.62938 15.8663 4.01352 16.2304L4.01287 16.23L4.26653 16.4714C4.62758 16.8136 5.09563 16.9841 5.55676 16.9838C5.80461 16.9841 6.05276 16.9343 6.28596 16.8368C6.36781 17.1689 6.53686 17.4845 6.80276 17.7368L7.05641 17.9781C7.41746 18.3204 7.88475 18.4908 8.34664 18.4905C8.7077 18.4909 9.07039 18.3845 9.38264 18.1779C9.47399 18.4718 9.63049 18.7503 9.86873 18.9766L10.1224 19.218C10.4827 19.5602 10.9507 19.7307 11.412 19.7304C11.9032 19.7307 12.3992 19.5378 12.7656 19.1553L13.8674 18.0047L15.3643 19.3901C15.7226 19.7225 16.1825 19.8878 16.6365 19.8868C17.1352 19.8879 17.6384 19.6881 18.0055 19.295L18.2445 19.039C18.4507 18.8175 18.5854 18.5553 18.6635 18.2816L19.2433 18.8168C19.6023 19.1478 20.0615 19.3124 20.5149 19.3121C21.0143 19.3124 21.5188 19.1126 21.8863 18.7193L22.1239 18.4636C22.3983 18.1704 22.5528 17.8073 22.6005 17.4365C22.7535 17.4757 22.9086 17.5023 23.065 17.5023C23.5644 17.5023 24.0676 17.3028 24.4354 16.9098L24.6737 16.6541C25.0068 16.2972 25.1725 15.8394 25.1718 15.388C25.1718 15.2479 25.1517 15.1086 25.1206 14.9708C25.5348 14.9159 25.9364 14.7312 26.2418 14.4032L26.4808 14.1472C26.8138 13.7903 26.9788 13.3325 26.9788 12.8808C26.9795 12.3838 26.7791 11.8823 26.3836 11.5169L25.9367 11.1041L29.9702 6.64451C30.3323 6.24303 30.4994 5.72623 30.5 5.21728ZM4.13363 13.051C3.91994 13.0503 3.71094 12.9739 3.54764 12.8192L3.29434 12.5789C3.11908 12.4132 3.03254 12.1927 3.03184 11.9663C3.03254 11.7539 3.10854 11.5466 3.26504 11.3833L5.81832 8.71891C5.98467 8.54535 6.20662 8.45846 6.43432 8.45816C6.64737 8.45852 6.85567 8.53522 7.02031 8.69031L7.27256 8.93096C7.27256 8.93096 7.53371 9.31715 7.53436 9.54385C7.53371 9.71359 7.48256 9.87894 7.38336 10.0221C7.37487 10.0306 4.62758 12.8938 4.62758 12.8938C4.48168 12.9971 4.30918 13.0502 4.13363 13.051ZM6.17281 15.7086C6.00682 15.8815 5.78522 15.968 5.55752 15.9687C5.34383 15.9684 5.13547 15.8917 4.97153 15.7369L4.71787 15.4959L4.71723 15.4955C4.54338 15.3305 4.45608 15.1093 4.45608 14.8829C4.45608 14.6706 4.53278 14.4633 4.68852 14.3C4.68852 14.3 8.09199 10.7571 8.12065 10.7229C8.2833 10.5665 8.49289 10.4857 8.70934 10.4853C8.92303 10.4857 9.13139 10.562 9.29533 10.7171L9.54899 10.9585C9.72348 11.1235 9.81014 11.3444 9.81078 11.5711C9.81008 11.7834 9.73344 11.991 9.57758 12.1543L6.17281 15.7086ZM8.96229 17.2149C8.79664 17.3882 8.5751 17.4749 8.34735 17.4755C8.13365 17.4752 7.92529 17.3985 7.76135 17.2434L7.50699 17.0023C7.3325 16.837 7.2452 16.6161 7.2452 16.3897C7.2452 16.2002 7.30965 16.0164 7.43299 15.8634L9.80322 13.3895C9.96313 13.2453 10.1635 13.1693 10.3712 13.1693C10.5849 13.1696 10.7932 13.246 10.9572 13.4011L11.2115 13.6424C11.3854 13.8074 11.4727 14.0283 11.4733 14.2547C11.4726 14.4674 11.3953 14.675 11.2401 14.8379L8.96229 17.2149ZM13.4659 16.9538L12.0277 18.4549C11.862 18.628 11.6401 18.7147 11.4124 18.7154C11.1987 18.715 10.9903 18.6383 10.8264 18.4832L10.5727 18.2421C10.3989 18.0771 10.3116 17.856 10.3109 17.6295C10.3116 17.4168 10.3883 17.2092 10.5441 17.0466L11.9817 15.5456C12.1481 15.3725 12.37 15.2855 12.5977 15.2852C12.8108 15.2855 13.0198 15.3619 13.1837 15.5173L13.4381 15.7584C13.6119 15.9234 13.6985 16.1443 13.6992 16.3706C13.6984 16.5833 13.6217 16.7909 13.4659 16.9538ZM25.9603 12.8821C25.96 13.0906 25.8853 13.2948 25.734 13.457L25.4957 13.7127C25.3293 13.8907 25.1036 13.9807 24.8725 13.981C24.6629 13.9807 24.4576 13.907 24.2947 13.7564L20.279 10.0427L19.5846 10.7862L23.883 14.7682C24.062 14.9339 24.1519 15.1589 24.1532 15.3886C24.1519 15.5979 24.0779 15.8018 23.9269 15.9641L23.6893 16.2198C23.523 16.3977 23.2972 16.4874 23.0662 16.4881C22.8565 16.4874 22.6506 16.4134 22.489 16.2638L18.4722 12.5501L17.7785 13.2936L21.3433 16.5901C21.5151 16.7547 21.6031 16.9739 21.6031 17.1989C21.6031 17.4075 21.5291 17.6117 21.3781 17.7736L21.1398 18.0293C20.9741 18.2073 20.7477 18.2973 20.516 18.2979C20.3056 18.2973 20.1004 18.2233 19.9382 18.0736L16.3806 14.7891H16.38L16.3793 14.7885L15.687 15.5333L15.6877 15.5339L15.701 15.5465L17.4828 17.191C17.6407 17.3533 17.7225 17.5612 17.7231 17.7763C17.7225 17.9839 17.6491 18.1871 17.4981 18.3491L17.2598 18.6051C17.0935 18.783 16.8685 18.8723 16.638 18.873C16.4284 18.8724 16.2231 18.7987 16.0609 18.6484L14.5095 17.2119C14.6445 16.9471 14.7198 16.6596 14.7198 16.3712C14.7205 15.882 14.5262 15.3888 14.142 15.0244L13.8877 14.7831C13.5274 14.4411 13.06 14.2704 12.5988 14.271C12.563 14.271 12.5269 14.2792 12.4918 14.2813C12.4918 14.2728 12.4938 14.2639 12.4938 14.2554C12.4944 13.7662 11.916 12.9078 11.916 12.9078L11.6623 12.6672C11.3927 12.4115 11.0637 12.252 10.7215 12.1879C10.7921 11.9881 10.832 11.7802 10.832 11.5719C10.832 11.0827 10.6383 10.589 10.2542 10.2251L10.0005 9.98371C9.63945 9.64146 9.17217 9.47066 8.71092 9.47101C8.65707 9.47101 8.60393 9.48191 8.55037 9.48672C8.53572 9.01697 8.34653 8.54758 7.97838 8.19783V8.19748L7.72543 7.95719C7.36438 7.61459 6.89709 7.44379 6.43584 7.44414C5.94389 7.44379 5.4486 7.63674 5.08221 8.01924L4.47951 8.64818L1.80963 6.371C1.61774 6.2067 1.52194 5.97965 1.52123 5.7465C1.52188 5.55115 1.58838 5.3599 1.73018 5.20111L4.54731 2.04613C4.6591 1.92068 4.82445 1.80719 5.01811 1.72838C5.21176 1.64963 5.4316 1.60639 5.63715 1.60668C5.81615 1.60668 5.98414 1.63908 6.1185 1.69703L7.66514 2.35697C8.10113 2.54072 8.60733 2.61607 9.11604 2.61771C9.62533 2.61602 10.1309 2.54066 10.5669 2.35697L12.1129 1.69732C12.3512 1.59338 12.7108 1.52893 13.0684 1.53027C13.4638 1.52787 13.8599 1.60973 14.0897 1.72697C14.2355 1.79957 14.3739 1.86848 14.5024 1.93287L12.9258 3.04117C12.4192 3.39742 12.1462 3.96396 12.1469 4.53566C12.1462 4.91406 12.2662 5.29926 12.5103 5.62615L12.5096 5.62545L12.7179 5.90529C13.1133 6.431 13.7299 6.70129 14.3463 6.70264C14.6943 6.70264 15.0489 6.61469 15.3649 6.42514L16.3078 5.85889C16.5001 5.74129 16.7905 5.66699 17.0908 5.66834C17.4436 5.66629 17.7992 5.77064 18.0129 5.92773L20.6214 7.79787C21.202 8.21377 22.1476 8.98522 22.6716 9.47066L25.6909 12.2622C25.8696 12.428 25.9596 12.652 25.9603 12.8821ZM29.2132 5.96588L25.1909 10.4135L23.3647 8.72541C22.7928 8.19736 21.8495 7.42732 21.2168 6.97287L18.609 5.10273C18.1668 4.78949 17.6255 4.65408 17.0903 4.65209C16.6348 4.65344 16.176 4.7527 15.7799 4.98854L14.8377 5.55479C14.6932 5.64168 14.5228 5.68604 14.3458 5.68639C14.0294 5.68744 13.7127 5.53979 13.5362 5.29943L13.3286 5.01994L13.3279 5.01924C13.2174 4.87029 13.166 4.70324 13.1652 4.53414C13.1666 4.27844 13.2845 4.03029 13.513 3.86904L16.3008 1.91025C16.5419 1.73576 16.9707 1.61336 17.378 1.61641C17.661 1.61506 17.9313 1.67195 18.1164 1.76336L20.386 2.86275C20.773 3.04855 21.2097 3.12455 21.649 3.12561C22.2135 3.12285 22.7841 3.00016 23.2543 2.71141L25.5727 1.26912C25.7207 1.17678 25.8983 1.12902 26.0834 1.12902C26.3964 1.12838 26.71 1.27018 26.8876 1.50162L29.2646 4.54311C29.4017 4.7173 29.4811 4.96305 29.4811 5.21775C29.4815 5.50258 29.3809 5.78283 29.2132 5.96588Z" fill="#CACAC9" fill-opacity="0.8" stroke-width="0.2"/>
    </symbol>

    <symbol xmlns="http://www.w3.org/2000/svg" id="icon-4" width="30" height="30" viewBox="0 0 30 30" fill="none">
        <g clip-path="url(#clip0)">
        <path d="M16.5628 17.049L24.7241 25.2103C24.8099 25.2961 24.9225 25.3389 25.0349 25.3389C25.1473 25.3389 25.2599 25.2961 25.3455 25.2103C25.5172 25.0386 25.5172 24.7605 25.3455 24.5888L17.1842 16.4276C17.0126 16.2559 16.7343 16.2559 16.5628 16.4276C16.3912 16.5992 16.3912 16.8773 16.5628 17.049Z" fill="#CACAC9" fill-opacity="0.8" stroke-width="0.1"/>
        <path d="M9.57797 9.44271C9.4063 9.61437 9.4063 9.89246 9.57797 10.0641L11.7823 12.2685C11.8682 12.3543 11.9805 12.3971 12.0932 12.3971C12.2055 12.3971 12.3179 12.3543 12.4037 12.2685C12.5754 12.0968 12.5754 11.8187 12.4037 11.6471L10.1994 9.44271C10.0277 9.27105 9.74963 9.27105 9.57797 9.44271Z" fill="#CACAC9" fill-opacity="0.8" stroke-width="0.1"/>
        <path d="M14.7759 17.1033L21.8539 9.27L22.3805 9.74287C22.5323 9.87883 22.7225 9.94589 22.912 9.94589C23.1297 9.94589 23.3467 9.85754 23.5034 9.68405L23.6426 9.53001L24.1379 9.97748L23.9413 10.1949C23.7266 10.4325 23.6174 10.7392 23.6337 11.0589C23.6499 11.3785 23.7895 11.6728 24.0269 11.8873L25.2201 12.9653C25.4421 13.166 25.7247 13.2745 26.0218 13.2745C26.0424 13.2745 26.0633 13.2741 26.0839 13.2729C26.4036 13.2569 26.6977 13.1171 26.9124 12.8797L29.5604 9.94886C30.0032 9.4586 29.9648 8.69963 29.4748 8.25651L28.2816 7.17848C28.0442 6.96401 27.7375 6.85507 27.4178 6.87086C27.1143 6.88619 26.8337 7.01299 26.6222 7.22906L26.1264 6.78114L26.3052 6.58292C26.5995 6.25745 26.5741 5.753 26.2487 5.45843L22.283 1.87047V1.87024C21.2066 0.897721 19.8026 0.285919 18.3298 0.147216C16.8615 0.00897124 15.4814 0.35115 14.4434 1.10989C14.1827 1.30032 14.0632 1.62625 14.1387 1.94005C14.2145 2.25385 14.4695 2.48937 14.7883 2.53995C17.7921 3.0174 18.6079 3.98511 18.8191 4.37902C19.0327 4.77727 19.019 5.2284 18.777 5.7578C18.6681 5.99653 18.6839 6.26455 18.8079 6.48222L11.7123 14.3354C11.3484 14.1267 10.8749 14.1914 10.5824 14.5148L10.0559 15.0976C9.76182 15.423 9.74694 15.9046 9.99596 16.2459L8.16284 17.5425C8.1601 17.5445 8.15735 17.5464 8.1546 17.5484C7.41669 18.0959 6.73004 18.7192 6.11412 19.401L0.85967 25.2162C-0.183575 26.3707 -0.0929374 28.1587 1.06154 29.202C1.58454 29.6746 2.25036 29.9303 2.95005 29.9303C2.99857 29.9303 3.04733 29.9291 3.09631 29.9266C3.8491 29.8886 4.54193 29.5595 5.0473 29.0001L10.302 23.1849C10.9179 22.5033 11.4686 21.7571 11.9387 20.9675C11.9403 20.9647 11.9421 20.9618 11.9437 20.959L13.0483 19.0041C13.1868 19.0856 13.3443 19.1286 13.5077 19.1286C13.5233 19.1286 13.5391 19.1282 13.5549 19.1275C13.7979 19.1151 14.0218 19.0089 14.185 18.8283L14.7114 18.2456C14.8746 18.065 14.9577 17.8318 14.9453 17.5885C14.9364 17.4111 14.8773 17.244 14.7759 17.1033ZM14.1376 16.4988L12.3784 14.9092L19.4348 7.09951L21.1995 8.68315L14.1376 16.4988ZM27.4622 7.74885C27.5476 7.74473 27.629 7.77357 27.6924 7.83079L28.8854 8.9086C29.0161 9.0267 29.0264 9.22903 28.9083 9.35949L26.2603 12.2903C26.2031 12.3535 26.1246 12.3908 26.0395 12.3952C25.9545 12.3995 25.8726 12.3702 25.8094 12.3132L24.6163 11.2352C24.4856 11.1171 24.4753 10.915 24.5934 10.7843L27.2415 7.85368C27.2988 7.79028 27.377 7.7532 27.4622 7.74885ZM26.0324 7.88069L24.7273 9.32539L24.232 8.87793L25.5373 7.43322L26.0324 7.88069ZM15.1273 1.70522C16.9556 0.51297 19.8528 0.859268 21.6934 2.5221L25.5979 6.05489L22.9065 9.03379L19.6012 6.06794C19.9354 5.3037 19.9331 4.596 19.5937 3.96337C18.8395 2.55735 16.5548 1.95172 15.1273 1.70522ZM11.1811 20.5221C10.741 21.2605 10.2258 21.9581 9.64966 22.5955L4.39521 28.4107C4.04731 28.7959 3.57009 29.0225 3.05168 29.0489C2.53326 29.0752 2.0359 28.8978 1.65069 28.5499C1.26571 28.202 1.03911 27.7248 1.01302 27.2066C0.9867 26.6882 1.16385 26.1906 1.51176 25.8056L6.76643 19.9902C7.34253 19.3527 7.98432 18.7698 8.6744 18.2573L10.6485 16.8611L12.3704 18.417L11.1811 20.5221ZM14.0591 17.6562L13.5326 18.239C13.5306 18.2415 13.5237 18.2488 13.5102 18.2495C13.4967 18.2488 13.4894 18.2436 13.4871 18.2413L10.7105 15.7327C10.6973 15.7206 10.6963 15.7 10.7082 15.6869L11.2347 15.1042C11.2468 15.0909 11.2672 15.09 11.2804 15.1019L14.0568 17.6107C14.0593 17.6128 14.0669 17.6196 14.0675 17.6329C14.0682 17.6464 14.0614 17.654 14.0591 17.6562Z" fill="#CACAC9" fill-opacity="0.8" stroke-width="0.1"/>
        <path d="M1.97523 9.72079C3.11758 10.645 4.65819 11.0284 6.20177 10.773C6.83371 10.6681 7.48877 10.8835 7.95386 11.3486L10.0122 13.4067C10.0978 13.4925 10.2104 13.5353 10.3228 13.5353C10.4354 13.5353 10.5478 13.4925 10.6336 13.4067C10.8053 13.235 10.8053 12.9567 10.6336 12.7851L8.57551 10.727C7.91015 10.0618 6.96921 9.75489 6.05826 9.90573C4.7621 10.1204 3.47532 9.80387 2.52798 9.03735C1.4472 8.16302 0.840432 6.83275 0.880716 5.44756L3.53094 7.59173C4.27069 8.19025 5.35925 8.07536 5.95732 7.33561L7.17475 5.83117C7.46451 5.47274 7.59749 5.02321 7.5492 4.56499C7.5009 4.10654 7.27683 3.69455 6.91863 3.40479L4.26817 1.26039C5.6774 0.915463 7.15438 1.27206 8.25416 2.23222C9.22118 3.07657 9.74509 4.3638 9.69131 5.76387C9.65949 6.59678 9.97031 7.40359 10.5441 7.97762L13.2312 10.6647C13.4029 10.8361 13.681 10.8361 13.8526 10.6647C14.0243 10.493 14.0243 10.2147 13.8526 10.0431L11.1655 7.35621C10.7643 6.95475 10.5471 6.38666 10.5698 5.79752C10.6336 4.1308 10.0003 2.58997 8.83208 1.57007C7.45696 0.369579 5.58905 -0.0430951 3.83559 0.466626C3.55635 0.54765 3.34738 0.775388 3.28993 1.0608C3.23225 1.34645 3.33731 1.63782 3.56367 1.82115L6.36565 4.088C6.54143 4.23013 6.65129 4.43224 6.6751 4.65723C6.6989 4.88199 6.63367 5.10263 6.49131 5.27842L5.27411 6.78309C4.98045 7.14564 4.4467 7.20217 4.08392 6.90851L1.28218 4.64166C1.05558 4.45833 0.748422 4.41667 0.48063 4.53249C0.213982 4.6483 0.0352248 4.89962 0.0141677 5.18915C-0.112862 6.93049 0.620248 8.62444 1.97523 9.72079Z" fill="#CACAC9" fill-opacity="0.8" stroke-width="0.1"/>
        <path d="M29.2556 25.4459L18.6336 14.8239C18.462 14.6525 18.1836 14.6525 18.0122 14.8239C17.8405 14.9955 17.8405 15.2739 18.0122 15.4455L28.6342 26.0673C29.2844 26.7178 29.2844 27.7761 28.6342 28.4264C27.9837 29.0766 26.9256 29.0771 26.2755 28.4266L16.2619 18.4132C16.0903 18.2416 15.812 18.2416 15.6403 18.4132C15.4689 18.5849 15.4689 18.863 15.6403 19.0346L25.6539 29.0482C26.1503 29.5447 26.8024 29.7928 27.4545 29.7928C28.1066 29.7928 28.7591 29.5444 29.2556 29.0478C30.2485 28.0549 30.2485 26.439 29.2556 25.4459Z" fill="#CACAC9" fill-opacity="0.8" stroke-width="0.1"/>
        </g>
        <defs>
        <clipPath id="clip0">
        <rect width="30" height="30" fill="white"/>
        </clipPath>
        </defs>
    </symbol>

    <symbol xmlns="http://www.w3.org/2000/svg" id="icon-5" width="31" height="30" viewBox="0 0 31 22" fill="none" stroke="currentColor" stroke-width="1" stroke-linecap="round" stroke-linejoin="round" class="feather feather-phone-outgoing">
        <polyline points="23 7 23 1 17 1"></polyline><line x1="16" y1="8" x2="23" y2="1"></line><path d="M22 16.92v3a2 2 0 0 1-2.18 2 19.79 19.79 0 0 1-8.63-3.07 19.5 19.5 0 0 1-6-6 19.79 19.79 0 0 1-3.07-8.67A2 2 0 0 1 4.11 2h3a2 2 0 0 1 2 1.72 12.84 12.84 0 0 0 .7 2.81 2 2 0 0 1-.45 2.11L8.09 9.91a16 16 0 0 0 6 6l1.27-1.27a2 2 0 0 1 2.11-.45 12.84 12.84 0 0 0 2.81.7A2 2 0 0 1 22 16.92z"></path>
    </symbol>

    <symbol xmlns="http://www.w3.org/2000/svg" id="icon-6" width="30" height="30" viewBox="0 0 30 30" fill="none">
        <g clip-path="url(#clip0)">
        <path d="M20.625 20.9023C20.3014 20.9023 20.0391 21.1566 20.0391 21.4699C20.0391 21.7831 20.3014 22.0374 20.625 22.0374C20.9484 22.0374 21.2109 21.7831 21.2109 21.4699C21.2109 21.1566 20.9484 20.9023 20.625 20.9023Z" fill="#CACAC9" stroke-width="0.5"/>
        <path d="M15.5859 10.9137C15.5859 10.6002 15.3234 10.3462 15 10.3462C14.6766 10.3462 14.4141 10.6002 14.4141 10.9137C14.4141 11.2269 14.6766 11.4812 15 11.4812C15.3234 11.4812 15.5859 11.2269 15.5859 10.9137Z" fill="#CACAC9" stroke-width="0.5"/>
        <path d="M9.375 22.0374C9.69841 22.0374 9.96094 21.7831 9.96094 21.4699C9.96094 21.1566 9.69841 20.9023 9.375 20.9023C9.05159 20.9023 8.78906 21.1566 8.78906 21.4699C8.78906 21.7831 9.05159 22.0374 9.375 22.0374Z" fill="#CACAC9" stroke-width="0.5"/>
        <path d="M29.6519 24.2969L26.4842 22.9591V10.7343C26.4842 10.5137 26.3453 10.3094 26.1244 10.2202L15.586 5.91186V1.82306C15.586 1.51544 15.3234 1.26611 15 1.26611C14.6764 1.26611 14.4141 1.51544 14.4141 1.82306V5.91186L3.87569 10.2202C3.66626 10.3029 3.51588 10.5045 3.51588 10.7343V22.9591L0.348159 24.2969C0.0524434 24.422 -0.0807658 24.7509 0.0506123 25.032C0.181075 25.3114 0.526229 25.4406 0.824004 25.3148L4.10548 23.929L14.7686 28.2882C14.9096 28.3459 15.082 28.3494 15.2317 28.2882L25.8946 23.929L29.1761 25.3148C29.475 25.441 29.8194 25.3103 29.9495 25.032C30.0808 24.7509 29.9476 24.422 29.6519 24.2969ZM14.4141 7.12454V8.50647C14.4141 8.81388 14.6764 9.06342 15 9.06342C15.3234 9.06342 15.586 8.81388 15.586 8.50647V7.12454L24.4153 10.7343L15 14.5835L5.58475 10.7343L14.4141 7.12454ZM7.76897 21.7721C7.63736 21.491 7.29106 21.3646 6.99558 21.4893L4.68753 22.4642V11.5799L14.4141 15.5565V26.9309L5.56438 23.3129L7.47142 22.5075C7.76714 22.3824 7.90035 22.0532 7.76897 21.7721ZM15.586 26.9309V15.5565L25.3123 11.5799V22.4642L23.0045 21.4895C22.7085 21.3646 22.3625 21.491 22.2311 21.7723C22.0997 22.0534 22.2329 22.3824 22.5286 22.5075L24.4357 23.3129L15.586 26.9309Z" fill="#CACAC9" stroke-width="0.2"/>
        </g>
        <defs>
        <clipPath id="clip0">
        <rect width="30" height="29" fill="white" transform="translate(0 0.5)"/>
        </clipPath>
        </defs>
    </symbol>

    <symbol xmlns="http://www.w3.org/2000/svg" id="icon-7" width="23" height="28" viewBox="0 0 23 28" fill="none">
        <path d="M18.6262 8.07471H4.25969C4.01594 8.07471 3.81836 8.27228 3.81836 8.51603C3.81836 8.75978 4.01594 8.95736 4.25969 8.95736H18.6263C18.87 8.95736 19.0676 8.75978 19.0676 8.51603C19.0676 8.27228 18.87 8.07471 18.6262 8.07471Z" fill="#CACAC9" stroke-width="0.2"/>
        <path d="M4.25969 5.89584H11.4429C11.6867 5.89584 11.8843 5.69826 11.8843 5.45451C11.8843 5.21076 11.6867 5.01318 11.4429 5.01318H4.25969C4.01594 5.01318 3.81836 5.21076 3.81836 5.45451C3.81836 5.69832 4.01594 5.89584 4.25969 5.89584Z" fill="#CACAC9" stroke-width="0.2"/>
        <path d="M18.6262 10.7866H4.25969C4.01594 10.7866 3.81836 10.9842 3.81836 11.228C3.81836 11.4717 4.01594 11.6693 4.25969 11.6693H18.6263C18.87 11.6693 19.0676 11.4717 19.0676 11.228C19.0676 10.9842 18.87 10.7866 18.6262 10.7866Z" fill="#CACAC9" stroke-width="0.2"/>
        <path d="M21.7613 26.9337H2.93482C2.1802 26.9337 1.56619 26.3197 1.56619 25.5651V2.25123C1.56619 1.4966 2.1802 0.882598 2.93482 0.882598H16.1803C16.2231 0.882598 16.2652 0.886523 16.3069 0.892148V3.64453C16.3069 4.8859 17.3168 5.89576 18.5581 5.89576H21.3104C21.3161 5.93748 21.32 5.97961 21.32 6.02238V27.3749C21.32 27.6187 21.5175 27.8163 21.7613 27.8163C22.005 27.8163 22.2026 27.6187 22.2026 27.3749V6.02244C22.2026 5.53834 22.0141 5.08318 21.6718 4.74082L17.4618 0.530859C17.1195 0.188555 16.6644 0 16.1803 0H2.93482C1.69346 0 0.683594 1.00992 0.683594 2.25123V25.5651C0.683594 26.8064 1.69352 27.8163 2.93482 27.8163H21.7613C22.005 27.8163 22.2026 27.6187 22.2026 27.3749C22.2026 27.1312 22.005 26.9337 21.7613 26.9337ZM20.6959 5.01316H18.5581C17.8035 5.01316 17.1895 4.39916 17.1895 3.64453V1.5068L20.6959 5.01316Z" fill="#CACAC9" stroke-width="0.2"/>
    </symbol>

    <symbol xmlns="http://www.w3.org/2000/svg" id="icon-8" width="28" height="30" viewBox="0 0 28 30" fill="none">
        <path d="M27.8641 0.602999C27.8521 0.403891 27.7072 0.23666 27.5116 0.197518C26.1965 -0.0659858 24.8628 -0.06581 23.5475 0.19787C23.3526 0.236953 23.209 0.403422 23.197 0.601944C23.1947 0.639797 23.1929 0.677708 23.191 0.715619C23.1891 0.754409 23.1862 0.7932 23.1802 0.83158C23.0823 1.45691 22.5402 1.93687 21.8879 1.93687C21.4103 1.93687 20.9917 1.67957 20.7634 1.2963C20.6629 1.12778 20.6086 0.935821 20.5914 0.740405C20.5869 0.689193 20.5824 0.638039 20.5775 0.586885C20.558 0.382152 20.3995 0.218495 20.1955 0.192537C18.1804 -0.0640521 16.1371 -0.0641107 14.1222 0.19242C13.918 0.218437 13.7587 0.381977 13.7392 0.586885C13.719 0.799469 13.7013 1.01235 13.6849 1.22546C13.6268 1.22575 13.5682 1.22534 13.5112 1.22692C12.1789 1.26267 9.38008 2.73921 8.23425 3.40111C8.03608 3.51554 7.9449 3.76194 8.03965 3.97019C8.11494 4.13572 8.27538 4.22912 8.44079 4.22912C8.51568 4.22912 8.59162 4.20996 8.66106 4.16965C9.68355 3.57607 12.3434 2.1375 13.5352 2.1055C13.5655 2.10468 13.5968 2.10515 13.6274 2.10474C13.5597 3.37357 13.5571 4.64773 13.6201 5.9169C11.8208 5.96706 10.0712 6.33744 8.41952 7.01809C8.03988 7.17471 7.70917 7.01575 7.52635 6.81482C7.34559 6.61601 7.21996 6.27574 7.40957 5.91655C7.77638 5.22067 8.25235 4.5937 8.82448 4.05263C8.99839 3.88815 9.02376 3.61105 8.86579 3.43128C8.70084 3.24354 8.41466 3.2313 8.23425 3.40111C7.58589 4.01144 7.04681 4.7198 6.63213 5.50644C6.30106 6.13353 6.39681 6.87922 6.87612 7.40617C7.20437 7.76706 7.65122 7.95937 8.11114 7.95937C8.3263 7.95937 8.54439 7.91724 8.75446 7.83063C10.3159 7.18714 11.971 6.83849 13.6741 6.79449C13.6932 7.0543 13.7147 7.31388 13.7393 7.57293C13.7587 7.77708 13.9165 7.9412 14.12 7.9671C14.3119 7.99154 14.5043 8.01292 14.6967 8.03273V11.7568C13.8312 11.4703 12.8751 11.5689 12.0704 12.0543L6.12018 15.643C5.77863 15.2176 5.25467 14.9445 4.66789 14.9445H1.86211C0.833696 14.9445 0 15.7782 0 16.8066V28.1378C0 29.1662 0.833696 29.9999 1.86211 29.9999H4.66795C5.19707 29.9999 5.67497 29.7777 6.0143 29.4221C6.03902 29.4265 6.06434 29.4292 6.09024 29.4292H20.2678C20.5085 29.4292 20.7183 29.2438 20.7255 29.0032C20.733 28.7544 20.5335 28.5502 20.2862 28.5502H6.52964V28.1513C6.52964 28.1468 6.53 28.1423 6.53 28.1378V16.8066C6.53 16.8028 6.52976 16.7991 6.5297 16.7953V16.4224L12.5243 12.807C13.1927 12.4038 14.0051 12.3708 14.6967 12.7043V14.0144H13.5045C13.2638 14.0144 13.054 14.1998 13.0468 14.4404C13.0393 14.6892 13.2388 14.8934 13.4861 14.8934H20.7379C21.1056 14.8934 21.4517 15.0367 21.7121 15.2967C21.9722 15.5568 22.1155 15.9026 22.1155 16.2704C22.1155 17.0264 21.5033 17.6422 20.7486 17.648C20.5467 17.6495 20.3627 17.7767 20.313 17.9723C20.2388 18.2647 20.4577 18.5269 20.7379 18.5269H21.3588C22.1296 18.5269 22.7806 19.1577 22.7674 19.9284C22.7546 20.6773 22.1416 21.2827 21.3901 21.2827H20.7563C20.5156 21.2827 20.3058 21.4681 20.2986 21.7086C20.2911 21.9575 20.4906 22.1616 20.7379 22.1616C21.106 22.1616 21.452 22.3048 21.7124 22.5652C21.9706 22.823 22.1136 23.166 22.1155 23.5318C22.1195 24.2937 21.4643 24.9168 20.7024 24.9168H20.1042C19.8635 24.9168 19.6537 25.1022 19.6465 25.3427C19.639 25.5916 19.8385 25.7957 20.0858 25.7957C20.4535 25.7957 20.7996 25.939 21.0603 26.1993C21.3203 26.4588 21.4634 26.8045 21.4634 27.1727C21.4634 27.6764 20.5373 28.3489 20.0964 28.5921C19.8959 28.7026 19.7919 28.9405 19.8778 29.1527C19.9487 29.3278 20.1144 29.4288 20.2862 29.4288C20.3559 29.4288 20.4267 29.4122 20.4926 29.3771C21.2306 28.9835 22.3423 28.0083 22.3423 27.1728C22.3423 26.5733 22.1105 26.01 21.6892 25.5853C22.4594 25.2257 22.9944 24.4438 22.9944 23.5393C22.9944 22.9392 22.7625 22.3756 22.3413 21.9511C23.1115 21.5915 23.6466 20.8094 23.6466 19.9045C23.6466 18.9995 23.111 18.2171 22.34 17.8579C22.7444 17.4499 22.9944 16.8888 22.9944 16.2704C22.9944 15.6679 22.7597 15.1014 22.3334 14.675C21.9067 14.2491 21.3401 14.0145 20.7379 14.0145H19.6199V8.03284C19.8125 8.01304 20.005 7.99165 20.1972 7.96716C20.4005 7.94126 20.5582 7.77713 20.5776 7.57299C20.5824 7.52183 20.587 7.47068 20.5915 7.41953C20.6087 7.22411 20.663 7.03215 20.7634 6.86363C20.9918 6.48036 21.4103 6.22307 21.8879 6.22307C22.5403 6.22307 23.0824 6.70302 23.1803 7.32835C23.1862 7.36667 23.1891 7.40552 23.1911 7.44431C23.193 7.48222 23.1948 7.52013 23.1971 7.55793C23.209 7.75639 23.3526 7.92286 23.5476 7.96195C24.2055 8.0939 24.868 8.15988 25.5306 8.15988C26.1925 8.15988 26.8544 8.09402 27.5117 7.96235C27.7073 7.92315 27.8521 7.75598 27.8641 7.55693C28.0034 5.24979 28.0034 2.91014 27.8641 0.602999ZM4.66795 29.1211H1.86211C1.31998 29.1211 0.878932 28.68 0.878932 28.1379V16.8067C0.878932 16.2646 1.31998 15.8235 1.86211 15.8235H4.66795C5.20814 15.8235 5.64778 16.2616 5.65083 16.8011L5.65077 28.1447C5.64708 28.6836 5.20779 29.1211 4.66795 29.1211ZM14.5826 1.02248C16.2936 0.831052 18.0231 0.831052 19.7343 1.02248C19.907 3.05317 19.907 5.10665 19.7343 7.13733C18.0231 7.32876 16.2936 7.32876 14.5826 7.13733C14.4099 5.10665 14.4099 3.05317 14.5826 1.02248ZM18.7411 14.0146H15.5757V8.10732C16.1026 8.14207 16.6305 8.15982 17.1585 8.15982C17.6863 8.15982 18.2142 8.14207 18.7411 8.10732V14.0146ZM21.8879 5.34413C21.4532 5.34413 21.0481 5.47211 20.7072 5.69166C20.7539 4.61825 20.7539 3.54168 20.7072 2.46827C21.048 2.68782 21.4532 2.8158 21.8879 2.8158C22.343 2.8158 22.766 2.67593 23.1164 2.43715C23.0854 3.53131 23.0854 4.62868 23.1164 5.72284C22.766 5.48394 22.343 5.34413 21.8879 5.34413ZM27.0064 7.16094C26.0255 7.32085 25.0354 7.32085 24.0547 7.16094C23.9437 5.11467 23.9437 3.0452 24.0547 0.998928C25.0353 0.839021 26.0255 0.839021 27.0064 0.998928C27.1173 3.0452 27.1173 5.11467 27.0064 7.16094Z" fill="#CACAC9" stroke-width="0.2"/>
    </symbol>
</svg>
