<svg xmlns="http://www.w3.org/2000/svg">
    <symbol xmlns="http://www.w3.org/2000/svg" id="icon-5" width="31" height="30" viewBox="0 0 31 30" fill="none">
        <path d="M29.25 8.75V1.25H21.75" stroke="#CACAC9" stroke-linecap="round" stroke-linejoin="round"/>
        <path d="M20.5 10L29.25 1.25" stroke="#CACAC9" stroke-linecap="round" stroke-linejoin="round"/>
        <path d="M28.0003 21.1501V24.9001C28.0017 25.2482 27.9304 25.5928 27.7909 25.9118C27.6514 26.2308 27.4469 26.5171 27.1904 26.7525C26.9338 26.9878 26.631 27.167 26.3012 27.2785C25.9714 27.39 25.622 27.4315 25.2753 27.4001C21.4288 26.9822 17.734 25.6678 14.4878 23.5626C11.4676 21.6435 8.90695 19.0828 6.98778 16.0626C4.87526 12.8016 3.56059 9.08886 3.15028 5.22512C3.11905 4.87945 3.16013 4.53107 3.27091 4.20215C3.38169 3.87323 3.55975 3.57098 3.79374 3.31465C4.02773 3.05831 4.31254 2.85351 4.63002 2.71327C4.9475 2.57304 5.29071 2.50045 5.63778 2.50012H9.38778C9.99441 2.49415 10.5825 2.70897 11.0425 3.10454C11.5024 3.5001 11.8029 4.04943 11.8878 4.65012C12.0461 5.8502 12.3396 7.02853 12.7628 8.16262C12.931 8.61003 12.9674 9.09626 12.8677 9.56372C12.768 10.0312 12.5364 10.4603 12.2003 10.8001L10.6128 12.3876C12.3922 15.5171 14.9833 18.1082 18.1128 19.8876L19.7003 18.3001C20.0401 17.964 20.4692 17.7324 20.9367 17.6327C21.4041 17.533 21.8904 17.5694 22.3378 17.7376C23.4719 18.1608 24.6502 18.4543 25.8503 18.6126C26.4575 18.6983 27.012 19.0041 27.4084 19.472C27.8049 19.9399 28.0155 20.5371 28.0003 21.1501Z" stroke="#CACAC9" stroke-linecap="round" stroke-linejoin="round"/>
    </symbol>

    <symbol xmlns="http://www.w3.org/2000/svg" id="icon-6" width="30" height="30" viewBox="0 0 30 30" fill="none">
        <g clip-path="url(#clip0)">
        <path d="M20.625 20.9023C20.3014 20.9023 20.0391 21.1566 20.0391 21.4699C20.0391 21.7831 20.3014 22.0374 20.625 22.0374C20.9484 22.0374 21.2109 21.7831 21.2109 21.4699C21.2109 21.1566 20.9484 20.9023 20.625 20.9023Z" fill="#CACAC9" stroke="#282828" stroke-width="0.5"/>
        <path d="M15.5859 10.9137C15.5859 10.6002 15.3234 10.3462 15 10.3462C14.6766 10.3462 14.4141 10.6002 14.4141 10.9137C14.4141 11.2269 14.6766 11.4812 15 11.4812C15.3234 11.4812 15.5859 11.2269 15.5859 10.9137Z" fill="#CACAC9" stroke="#282828" stroke-width="0.5"/>
        <path d="M9.375 22.0374C9.69841 22.0374 9.96094 21.7831 9.96094 21.4699C9.96094 21.1566 9.69841 20.9023 9.375 20.9023C9.05159 20.9023 8.78906 21.1566 8.78906 21.4699C8.78906 21.7831 9.05159 22.0374 9.375 22.0374Z" fill="#CACAC9" stroke="#282828" stroke-width="0.5"/>
        <path d="M29.6519 24.2969L26.4842 22.9591V10.7343C26.4842 10.5137 26.3453 10.3094 26.1244 10.2202L15.586 5.91186V1.82306C15.586 1.51544 15.3234 1.26611 15 1.26611C14.6764 1.26611 14.4141 1.51544 14.4141 1.82306V5.91186L3.87569 10.2202C3.66626 10.3029 3.51588 10.5045 3.51588 10.7343V22.9591L0.348159 24.2969C0.0524434 24.422 -0.0807658 24.7509 0.0506123 25.032C0.181075 25.3114 0.526229 25.4406 0.824004 25.3148L4.10548 23.929L14.7686 28.2882C14.9096 28.3459 15.082 28.3494 15.2317 28.2882L25.8946 23.929L29.1761 25.3148C29.475 25.441 29.8194 25.3103 29.9495 25.032C30.0808 24.7509 29.9476 24.422 29.6519 24.2969ZM14.4141 7.12454V8.50647C14.4141 8.81388 14.6764 9.06342 15 9.06342C15.3234 9.06342 15.586 8.81388 15.586 8.50647V7.12454L24.4153 10.7343L15 14.5835L5.58475 10.7343L14.4141 7.12454ZM7.76897 21.7721C7.63736 21.491 7.29106 21.3646 6.99558 21.4893L4.68753 22.4642V11.5799L14.4141 15.5565V26.9309L5.56438 23.3129L7.47142 22.5075C7.76714 22.3824 7.90035 22.0532 7.76897 21.7721ZM15.586 26.9309V15.5565L25.3123 11.5799V22.4642L23.0045 21.4895C22.7085 21.3646 22.3625 21.491 22.2311 21.7723C22.0997 22.0534 22.2329 22.3824 22.5286 22.5075L24.4357 23.3129L15.586 26.9309Z" fill="#CACAC9" stroke="#282828" stroke-width="0.2"/>
        </g>
        <defs>
        <clipPath id="clip0">
        <rect width="30" height="29" fill="white" transform="translate(0 0.5)"/>
        </clipPath>
        </defs>
    </symbol>

    <symbol xmlns="http://www.w3.org/2000/svg" id="icon-7" width="23" height="28" viewBox="0 0 23 28" fill="none">
        <path d="M18.6262 8.07471H4.25969C4.01594 8.07471 3.81836 8.27228 3.81836 8.51603C3.81836 8.75978 4.01594 8.95736 4.25969 8.95736H18.6263C18.87 8.95736 19.0676 8.75978 19.0676 8.51603C19.0676 8.27228 18.87 8.07471 18.6262 8.07471Z" fill="#CACAC9"/>
        <path d="M4.25969 5.89584H11.4429C11.6867 5.89584 11.8843 5.69826 11.8843 5.45451C11.8843 5.21076 11.6867 5.01318 11.4429 5.01318H4.25969C4.01594 5.01318 3.81836 5.21076 3.81836 5.45451C3.81836 5.69832 4.01594 5.89584 4.25969 5.89584Z" fill="#CACAC9"/>
        <path d="M18.6262 10.7866H4.25969C4.01594 10.7866 3.81836 10.9842 3.81836 11.228C3.81836 11.4717 4.01594 11.6693 4.25969 11.6693H18.6263C18.87 11.6693 19.0676 11.4717 19.0676 11.228C19.0676 10.9842 18.87 10.7866 18.6262 10.7866Z" fill="#CACAC9"/>
        <path d="M21.7613 26.9337H2.93482C2.1802 26.9337 1.56619 26.3197 1.56619 25.5651V2.25123C1.56619 1.4966 2.1802 0.882598 2.93482 0.882598H16.1803C16.2231 0.882598 16.2652 0.886523 16.3069 0.892148V3.64453C16.3069 4.8859 17.3168 5.89576 18.5581 5.89576H21.3104C21.3161 5.93748 21.32 5.97961 21.32 6.02238V27.3749C21.32 27.6187 21.5175 27.8163 21.7613 27.8163C22.005 27.8163 22.2026 27.6187 22.2026 27.3749V6.02244C22.2026 5.53834 22.0141 5.08318 21.6718 4.74082L17.4618 0.530859C17.1195 0.188555 16.6644 0 16.1803 0H2.93482C1.69346 0 0.683594 1.00992 0.683594 2.25123V25.5651C0.683594 26.8064 1.69352 27.8163 2.93482 27.8163H21.7613C22.005 27.8163 22.2026 27.6187 22.2026 27.3749C22.2026 27.1312 22.005 26.9337 21.7613 26.9337ZM20.6959 5.01316H18.5581C17.8035 5.01316 17.1895 4.39916 17.1895 3.64453V1.5068L20.6959 5.01316Z" fill="#CACAC9"/>
    </symbol>

    <symbol xmlns="http://www.w3.org/2000/svg" id="icon-8" width="28" height="30" viewBox="0 0 28 30" fill="none">
        <path d="M27.8641 0.602999C27.8521 0.403891 27.7072 0.23666 27.5116 0.197518C26.1965 -0.0659858 24.8628 -0.06581 23.5475 0.19787C23.3526 0.236953 23.209 0.403422 23.197 0.601944C23.1947 0.639797 23.1929 0.677708 23.191 0.715619C23.1891 0.754409 23.1862 0.7932 23.1802 0.83158C23.0823 1.45691 22.5402 1.93687 21.8879 1.93687C21.4103 1.93687 20.9917 1.67957 20.7634 1.2963C20.6629 1.12778 20.6086 0.935821 20.5914 0.740405C20.5869 0.689193 20.5824 0.638039 20.5775 0.586885C20.558 0.382152 20.3995 0.218495 20.1955 0.192537C18.1804 -0.0640521 16.1371 -0.0641107 14.1222 0.19242C13.918 0.218437 13.7587 0.381977 13.7392 0.586885C13.719 0.799469 13.7013 1.01235 13.6849 1.22546C13.6268 1.22575 13.5682 1.22534 13.5112 1.22692C12.1789 1.26267 9.38008 2.73921 8.23425 3.40111C8.03608 3.51554 7.9449 3.76194 8.03965 3.97019C8.11494 4.13572 8.27538 4.22912 8.44079 4.22912C8.51568 4.22912 8.59162 4.20996 8.66106 4.16965C9.68355 3.57607 12.3434 2.1375 13.5352 2.1055C13.5655 2.10468 13.5968 2.10515 13.6274 2.10474C13.5597 3.37357 13.5571 4.64773 13.6201 5.9169C11.8208 5.96706 10.0712 6.33744 8.41952 7.01809C8.03988 7.17471 7.70917 7.01575 7.52635 6.81482C7.34559 6.61601 7.21996 6.27574 7.40957 5.91655C7.77638 5.22067 8.25235 4.5937 8.82448 4.05263C8.99839 3.88815 9.02376 3.61105 8.86579 3.43128C8.70084 3.24354 8.41466 3.2313 8.23425 3.40111C7.58589 4.01144 7.04681 4.7198 6.63213 5.50644C6.30106 6.13353 6.39681 6.87922 6.87612 7.40617C7.20437 7.76706 7.65122 7.95937 8.11114 7.95937C8.3263 7.95937 8.54439 7.91724 8.75446 7.83063C10.3159 7.18714 11.971 6.83849 13.6741 6.79449C13.6932 7.0543 13.7147 7.31388 13.7393 7.57293C13.7587 7.77708 13.9165 7.9412 14.12 7.9671C14.3119 7.99154 14.5043 8.01292 14.6967 8.03273V11.7568C13.8312 11.4703 12.8751 11.5689 12.0704 12.0543L6.12018 15.643C5.77863 15.2176 5.25467 14.9445 4.66789 14.9445H1.86211C0.833696 14.9445 0 15.7782 0 16.8066V28.1378C0 29.1662 0.833696 29.9999 1.86211 29.9999H4.66795C5.19707 29.9999 5.67497 29.7777 6.0143 29.4221C6.03902 29.4265 6.06434 29.4292 6.09024 29.4292H20.2678C20.5085 29.4292 20.7183 29.2438 20.7255 29.0032C20.733 28.7544 20.5335 28.5502 20.2862 28.5502H6.52964V28.1513C6.52964 28.1468 6.53 28.1423 6.53 28.1378V16.8066C6.53 16.8028 6.52976 16.7991 6.5297 16.7953V16.4224L12.5243 12.807C13.1927 12.4038 14.0051 12.3708 14.6967 12.7043V14.0144H13.5045C13.2638 14.0144 13.054 14.1998 13.0468 14.4404C13.0393 14.6892 13.2388 14.8934 13.4861 14.8934H20.7379C21.1056 14.8934 21.4517 15.0367 21.7121 15.2967C21.9722 15.5568 22.1155 15.9026 22.1155 16.2704C22.1155 17.0264 21.5033 17.6422 20.7486 17.648C20.5467 17.6495 20.3627 17.7767 20.313 17.9723C20.2388 18.2647 20.4577 18.5269 20.7379 18.5269H21.3588C22.1296 18.5269 22.7806 19.1577 22.7674 19.9284C22.7546 20.6773 22.1416 21.2827 21.3901 21.2827H20.7563C20.5156 21.2827 20.3058 21.4681 20.2986 21.7086C20.2911 21.9575 20.4906 22.1616 20.7379 22.1616C21.106 22.1616 21.452 22.3048 21.7124 22.5652C21.9706 22.823 22.1136 23.166 22.1155 23.5318C22.1195 24.2937 21.4643 24.9168 20.7024 24.9168H20.1042C19.8635 24.9168 19.6537 25.1022 19.6465 25.3427C19.639 25.5916 19.8385 25.7957 20.0858 25.7957C20.4535 25.7957 20.7996 25.939 21.0603 26.1993C21.3203 26.4588 21.4634 26.8045 21.4634 27.1727C21.4634 27.6764 20.5373 28.3489 20.0964 28.5921C19.8959 28.7026 19.7919 28.9405 19.8778 29.1527C19.9487 29.3278 20.1144 29.4288 20.2862 29.4288C20.3559 29.4288 20.4267 29.4122 20.4926 29.3771C21.2306 28.9835 22.3423 28.0083 22.3423 27.1728C22.3423 26.5733 22.1105 26.01 21.6892 25.5853C22.4594 25.2257 22.9944 24.4438 22.9944 23.5393C22.9944 22.9392 22.7625 22.3756 22.3413 21.9511C23.1115 21.5915 23.6466 20.8094 23.6466 19.9045C23.6466 18.9995 23.111 18.2171 22.34 17.8579C22.7444 17.4499 22.9944 16.8888 22.9944 16.2704C22.9944 15.6679 22.7597 15.1014 22.3334 14.675C21.9067 14.2491 21.3401 14.0145 20.7379 14.0145H19.6199V8.03284C19.8125 8.01304 20.005 7.99165 20.1972 7.96716C20.4005 7.94126 20.5582 7.77713 20.5776 7.57299C20.5824 7.52183 20.587 7.47068 20.5915 7.41953C20.6087 7.22411 20.663 7.03215 20.7634 6.86363C20.9918 6.48036 21.4103 6.22307 21.8879 6.22307C22.5403 6.22307 23.0824 6.70302 23.1803 7.32835C23.1862 7.36667 23.1891 7.40552 23.1911 7.44431C23.193 7.48222 23.1948 7.52013 23.1971 7.55793C23.209 7.75639 23.3526 7.92286 23.5476 7.96195C24.2055 8.0939 24.868 8.15988 25.5306 8.15988C26.1925 8.15988 26.8544 8.09402 27.5117 7.96235C27.7073 7.92315 27.8521 7.75598 27.8641 7.55693C28.0034 5.24979 28.0034 2.91014 27.8641 0.602999ZM4.66795 29.1211H1.86211C1.31998 29.1211 0.878932 28.68 0.878932 28.1379V16.8067C0.878932 16.2646 1.31998 15.8235 1.86211 15.8235H4.66795C5.20814 15.8235 5.64778 16.2616 5.65083 16.8011L5.65077 28.1447C5.64708 28.6836 5.20779 29.1211 4.66795 29.1211ZM14.5826 1.02248C16.2936 0.831052 18.0231 0.831052 19.7343 1.02248C19.907 3.05317 19.907 5.10665 19.7343 7.13733C18.0231 7.32876 16.2936 7.32876 14.5826 7.13733C14.4099 5.10665 14.4099 3.05317 14.5826 1.02248ZM18.7411 14.0146H15.5757V8.10732C16.1026 8.14207 16.6305 8.15982 17.1585 8.15982C17.6863 8.15982 18.2142 8.14207 18.7411 8.10732V14.0146ZM21.8879 5.34413C21.4532 5.34413 21.0481 5.47211 20.7072 5.69166C20.7539 4.61825 20.7539 3.54168 20.7072 2.46827C21.048 2.68782 21.4532 2.8158 21.8879 2.8158C22.343 2.8158 22.766 2.67593 23.1164 2.43715C23.0854 3.53131 23.0854 4.62868 23.1164 5.72284C22.766 5.48394 22.343 5.34413 21.8879 5.34413ZM27.0064 7.16094C26.0255 7.32085 25.0354 7.32085 24.0547 7.16094C23.9437 5.11467 23.9437 3.0452 24.0547 0.998928C25.0353 0.839021 26.0255 0.839021 27.0064 0.998928C27.1173 3.0452 27.1173 5.11467 27.0064 7.16094Z" fill="#CACAC9"/>
    </symbol>
</svg>
