<svg width="30" height="30" viewBox="0 0 30 30" fill="none" xmlns="http://www.w3.org/2000/svg">
<g clip-path="url(#clip0)">
<path d="M20.625 20.9023C20.3014 20.9023 20.0391 21.1566 20.0391 21.4699C20.0391 21.7831 20.3014 22.0374 20.625 22.0374C20.9484 22.0374 21.2109 21.7831 21.2109 21.4699C21.2109 21.1566 20.9484 20.9023 20.625 20.9023Z" fill="#CACAC9" stroke="#282828" stroke-width="0.5"/>
<path d="M15.5859 10.9137C15.5859 10.6002 15.3234 10.3462 15 10.3462C14.6766 10.3462 14.4141 10.6002 14.4141 10.9137C14.4141 11.2269 14.6766 11.4812 15 11.4812C15.3234 11.4812 15.5859 11.2269 15.5859 10.9137Z" fill="#CACAC9" stroke="#282828" stroke-width="0.5"/>
<path d="M9.375 22.0374C9.69841 22.0374 9.96094 21.7831 9.96094 21.4699C9.96094 21.1566 9.69841 20.9023 9.375 20.9023C9.05159 20.9023 8.78906 21.1566 8.78906 21.4699C8.78906 21.7831 9.05159 22.0374 9.375 22.0374Z" fill="#CACAC9" stroke="#282828" stroke-width="0.5"/>
<path d="M29.6519 24.2969L26.4842 22.9591V10.7343C26.4842 10.5137 26.3453 10.3094 26.1244 10.2202L15.586 5.91186V1.82306C15.586 1.51544 15.3234 1.26611 15 1.26611C14.6764 1.26611 14.4141 1.51544 14.4141 1.82306V5.91186L3.87569 10.2202C3.66626 10.3029 3.51588 10.5045 3.51588 10.7343V22.9591L0.348159 24.2969C0.0524434 24.422 -0.0807658 24.7509 0.0506123 25.032C0.181075 25.3114 0.526229 25.4406 0.824004 25.3148L4.10548 23.929L14.7686 28.2882C14.9096 28.3459 15.082 28.3494 15.2317 28.2882L25.8946 23.929L29.1761 25.3148C29.475 25.441 29.8194 25.3103 29.9495 25.032C30.0808 24.7509 29.9476 24.422 29.6519 24.2969ZM14.4141 7.12454V8.50647C14.4141 8.81388 14.6764 9.06342 15 9.06342C15.3234 9.06342 15.586 8.81388 15.586 8.50647V7.12454L24.4153 10.7343L15 14.5835L5.58475 10.7343L14.4141 7.12454ZM7.76897 21.7721C7.63736 21.491 7.29106 21.3646 6.99558 21.4893L4.68753 22.4642V11.5799L14.4141 15.5565V26.9309L5.56438 23.3129L7.47142 22.5075C7.76714 22.3824 7.90035 22.0532 7.76897 21.7721ZM15.586 26.9309V15.5565L25.3123 11.5799V22.4642L23.0045 21.4895C22.7085 21.3646 22.3625 21.491 22.2311 21.7723C22.0997 22.0534 22.2329 22.3824 22.5286 22.5075L24.4357 23.3129L15.586 26.9309Z" fill="#CACAC9" stroke="#282828" stroke-width="0.2"/>
</g>
<defs>
<clipPath id="clip0">
<rect width="30" height="29" fill="white" transform="translate(0 0.5)"/>
</clipPath>
</defs>
</svg>
