<svg width="23" height="28" viewBox="0 0 23 28" fill="none" xmlns="http://www.w3.org/2000/svg">
<path d="M18.6262 8.07471H4.25969C4.01594 8.07471 3.81836 8.27228 3.81836 8.51603C3.81836 8.75978 4.01594 8.95736 4.25969 8.95736H18.6263C18.87 8.95736 19.0676 8.75978 19.0676 8.51603C19.0676 8.27228 18.87 8.07471 18.6262 8.07471Z" fill="#CACAC9"/>
<path d="M4.25969 5.89584H11.4429C11.6867 5.89584 11.8843 5.69826 11.8843 5.45451C11.8843 5.21076 11.6867 5.01318 11.4429 5.01318H4.25969C4.01594 5.01318 3.81836 5.21076 3.81836 5.45451C3.81836 5.69832 4.01594 5.89584 4.25969 5.89584Z" fill="#CACAC9"/>
<path d="M18.6262 10.7866H4.25969C4.01594 10.7866 3.81836 10.9842 3.81836 11.228C3.81836 11.4717 4.01594 11.6693 4.25969 11.6693H18.6263C18.87 11.6693 19.0676 11.4717 19.0676 11.228C19.0676 10.9842 18.87 10.7866 18.6262 10.7866Z" fill="#CACAC9"/>
<path d="M21.7613 26.9337H2.93482C2.1802 26.9337 1.56619 26.3197 1.56619 25.5651V2.25123C1.56619 1.4966 2.1802 0.882598 2.93482 0.882598H16.1803C16.2231 0.882598 16.2652 0.886523 16.3069 0.892148V3.64453C16.3069 4.8859 17.3168 5.89576 18.5581 5.89576H21.3104C21.3161 5.93748 21.32 5.97961 21.32 6.02238V27.3749C21.32 27.6187 21.5175 27.8163 21.7613 27.8163C22.005 27.8163 22.2026 27.6187 22.2026 27.3749V6.02244C22.2026 5.53834 22.0141 5.08318 21.6718 4.74082L17.4618 0.530859C17.1195 0.188555 16.6644 0 16.1803 0H2.93482C1.69346 0 0.683594 1.00992 0.683594 2.25123V25.5651C0.683594 26.8064 1.69352 27.8163 2.93482 27.8163H21.7613C22.005 27.8163 22.2026 27.6187 22.2026 27.3749C22.2026 27.1312 22.005 26.9337 21.7613 26.9337ZM20.6959 5.01316H18.5581C17.8035 5.01316 17.1895 4.39916 17.1895 3.64453V1.5068L20.6959 5.01316Z" fill="#CACAC9"/>
</svg>
