<svg width="30" height="30" viewBox="0 0 30 30" fill="none" xmlns="http://www.w3.org/2000/svg">
<g clip-path="url(#clip0)">
<path d="M16.5628 17.049L24.7241 25.2103C24.8099 25.2961 24.9225 25.3389 25.0349 25.3389C25.1473 25.3389 25.2599 25.2961 25.3455 25.2103C25.5172 25.0386 25.5172 24.7605 25.3455 24.5888L17.1842 16.4276C17.0126 16.2559 16.7343 16.2559 16.5628 16.4276C16.3912 16.5992 16.3912 16.8773 16.5628 17.049Z" fill="#CACAC9" fill-opacity="0.8"/>
<path d="M9.57797 9.44271C9.4063 9.61437 9.4063 9.89246 9.57797 10.0641L11.7823 12.2685C11.8682 12.3543 11.9805 12.3971 12.0932 12.3971C12.2055 12.3971 12.3179 12.3543 12.4037 12.2685C12.5754 12.0968 12.5754 11.8187 12.4037 11.6471L10.1994 9.44271C10.0277 9.27105 9.74963 9.27105 9.57797 9.44271Z" fill="#CACAC9" fill-opacity="0.8"/>
<path d="M14.7759 17.1033L21.8539 9.27L22.3805 9.74287C22.5323 9.87883 22.7225 9.94589 22.912 9.94589C23.1297 9.94589 23.3467 9.85754 23.5034 9.68405L23.6426 9.53001L24.1379 9.97748L23.9413 10.1949C23.7266 10.4325 23.6174 10.7392 23.6337 11.0589C23.6499 11.3785 23.7895 11.6728 24.0269 11.8873L25.2201 12.9653C25.4421 13.166 25.7247 13.2745 26.0218 13.2745C26.0424 13.2745 26.0633 13.2741 26.0839 13.2729C26.4036 13.2569 26.6977 13.1171 26.9124 12.8797L29.5604 9.94886C30.0032 9.4586 29.9648 8.69963 29.4748 8.25651L28.2816 7.17848C28.0442 6.96401 27.7375 6.85507 27.4178 6.87086C27.1143 6.88619 26.8337 7.01299 26.6222 7.22906L26.1264 6.78114L26.3052 6.58292C26.5995 6.25745 26.5741 5.753 26.2487 5.45843L22.283 1.87047V1.87024C21.2066 0.897721 19.8026 0.285919 18.3298 0.147216C16.8615 0.00897124 15.4814 0.35115 14.4434 1.10989C14.1827 1.30032 14.0632 1.62625 14.1387 1.94005C14.2145 2.25385 14.4695 2.48937 14.7883 2.53995C17.7921 3.0174 18.6079 3.98511 18.8191 4.37902C19.0327 4.77727 19.019 5.2284 18.777 5.7578C18.6681 5.99653 18.6839 6.26455 18.8079 6.48222L11.7123 14.3354C11.3484 14.1267 10.8749 14.1914 10.5824 14.5148L10.0559 15.0976C9.76182 15.423 9.74694 15.9046 9.99596 16.2459L8.16284 17.5425C8.1601 17.5445 8.15735 17.5464 8.1546 17.5484C7.41669 18.0959 6.73004 18.7192 6.11412 19.401L0.85967 25.2162C-0.183575 26.3707 -0.0929374 28.1587 1.06154 29.202C1.58454 29.6746 2.25036 29.9303 2.95005 29.9303C2.99857 29.9303 3.04733 29.9291 3.09631 29.9266C3.8491 29.8886 4.54193 29.5595 5.0473 29.0001L10.302 23.1849C10.9179 22.5033 11.4686 21.7571 11.9387 20.9675C11.9403 20.9647 11.9421 20.9618 11.9437 20.959L13.0483 19.0041C13.1868 19.0856 13.3443 19.1286 13.5077 19.1286C13.5233 19.1286 13.5391 19.1282 13.5549 19.1275C13.7979 19.1151 14.0218 19.0089 14.185 18.8283L14.7114 18.2456C14.8746 18.065 14.9577 17.8318 14.9453 17.5885C14.9364 17.4111 14.8773 17.244 14.7759 17.1033ZM14.1376 16.4988L12.3784 14.9092L19.4348 7.09951L21.1995 8.68315L14.1376 16.4988ZM27.4622 7.74885C27.5476 7.74473 27.629 7.77357 27.6924 7.83079L28.8854 8.9086C29.0161 9.0267 29.0264 9.22903 28.9083 9.35949L26.2603 12.2903C26.2031 12.3535 26.1246 12.3908 26.0395 12.3952C25.9545 12.3995 25.8726 12.3702 25.8094 12.3132L24.6163 11.2352C24.4856 11.1171 24.4753 10.915 24.5934 10.7843L27.2415 7.85368C27.2988 7.79028 27.377 7.7532 27.4622 7.74885ZM26.0324 7.88069L24.7273 9.32539L24.232 8.87793L25.5373 7.43322L26.0324 7.88069ZM15.1273 1.70522C16.9556 0.51297 19.8528 0.859268 21.6934 2.5221L25.5979 6.05489L22.9065 9.03379L19.6012 6.06794C19.9354 5.3037 19.9331 4.596 19.5937 3.96337C18.8395 2.55735 16.5548 1.95172 15.1273 1.70522ZM11.1811 20.5221C10.741 21.2605 10.2258 21.9581 9.64966 22.5955L4.39521 28.4107C4.04731 28.7959 3.57009 29.0225 3.05168 29.0489C2.53326 29.0752 2.0359 28.8978 1.65069 28.5499C1.26571 28.202 1.03911 27.7248 1.01302 27.2066C0.9867 26.6882 1.16385 26.1906 1.51176 25.8056L6.76643 19.9902C7.34253 19.3527 7.98432 18.7698 8.6744 18.2573L10.6485 16.8611L12.3704 18.417L11.1811 20.5221ZM14.0591 17.6562L13.5326 18.239C13.5306 18.2415 13.5237 18.2488 13.5102 18.2495C13.4967 18.2488 13.4894 18.2436 13.4871 18.2413L10.7105 15.7327C10.6973 15.7206 10.6963 15.7 10.7082 15.6869L11.2347 15.1042C11.2468 15.0909 11.2672 15.09 11.2804 15.1019L14.0568 17.6107C14.0593 17.6128 14.0669 17.6196 14.0675 17.6329C14.0682 17.6464 14.0614 17.654 14.0591 17.6562Z" fill="#CACAC9" fill-opacity="0.8"/>
<path d="M1.97523 9.72079C3.11758 10.645 4.65819 11.0284 6.20177 10.773C6.83371 10.6681 7.48877 10.8835 7.95386 11.3486L10.0122 13.4067C10.0978 13.4925 10.2104 13.5353 10.3228 13.5353C10.4354 13.5353 10.5478 13.4925 10.6336 13.4067C10.8053 13.235 10.8053 12.9567 10.6336 12.7851L8.57551 10.727C7.91015 10.0618 6.96921 9.75489 6.05826 9.90573C4.7621 10.1204 3.47532 9.80387 2.52798 9.03735C1.4472 8.16302 0.840432 6.83275 0.880716 5.44756L3.53094 7.59173C4.27069 8.19025 5.35925 8.07536 5.95732 7.33561L7.17475 5.83117C7.46451 5.47274 7.59749 5.02321 7.5492 4.56499C7.5009 4.10654 7.27683 3.69455 6.91863 3.40479L4.26817 1.26039C5.6774 0.915463 7.15438 1.27206 8.25416 2.23222C9.22118 3.07657 9.74509 4.3638 9.69131 5.76387C9.65949 6.59678 9.97031 7.40359 10.5441 7.97762L13.2312 10.6647C13.4029 10.8361 13.681 10.8361 13.8526 10.6647C14.0243 10.493 14.0243 10.2147 13.8526 10.0431L11.1655 7.35621C10.7643 6.95475 10.5471 6.38666 10.5698 5.79752C10.6336 4.1308 10.0003 2.58997 8.83208 1.57007C7.45696 0.369579 5.58905 -0.0430951 3.83559 0.466626C3.55635 0.54765 3.34738 0.775388 3.28993 1.0608C3.23225 1.34645 3.33731 1.63782 3.56367 1.82115L6.36565 4.088C6.54143 4.23013 6.65129 4.43224 6.6751 4.65723C6.6989 4.88199 6.63367 5.10263 6.49131 5.27842L5.27411 6.78309C4.98045 7.14564 4.4467 7.20217 4.08392 6.90851L1.28218 4.64166C1.05558 4.45833 0.748422 4.41667 0.48063 4.53249C0.213982 4.6483 0.0352248 4.89962 0.0141677 5.18915C-0.112862 6.93049 0.620248 8.62444 1.97523 9.72079Z" fill="#CACAC9" fill-opacity="0.8"/>
<path d="M29.2556 25.4459L18.6336 14.8239C18.462 14.6525 18.1836 14.6525 18.0122 14.8239C17.8405 14.9955 17.8405 15.2739 18.0122 15.4455L28.6342 26.0673C29.2844 26.7178 29.2844 27.7761 28.6342 28.4264C27.9837 29.0766 26.9256 29.0771 26.2755 28.4266L16.2619 18.4132C16.0903 18.2416 15.812 18.2416 15.6403 18.4132C15.4689 18.5849 15.4689 18.863 15.6403 19.0346L25.6539 29.0482C26.1503 29.5447 26.8024 29.7928 27.4545 29.7928C28.1066 29.7928 28.7591 29.5444 29.2556 29.0478C30.2485 28.0549 30.2485 26.439 29.2556 25.4459Z" fill="#CACAC9" fill-opacity="0.8"/>
</g>
<defs>
<clipPath id="clip0">
<rect width="30" height="30" fill="white"/>
</clipPath>
</defs>
</svg>
